{"title":"Nasser.Asphalt.1958 [Paz]","uid":11514463,"size":1294148836,"categoryP":"video","categoryS":"movies","magnet":"?xt=urn:btih:a79d79258feef3f33386dc9a417323faf40dbd19&amp;dn=Nasser.Asphalt.1958+%5BPaz%5D&amp;tr=udp%3A%2F%2Ftracker.openbittorrent.com%3A80&amp;tr=udp%3A%2F%2Fopen.demonii.com%3A1337&amp;tr=udp%3A%2F%2Ftracker.coppersurfer.tk%3A6969&amp;tr=udp%3A%2F%2Fexodus.desync.com%3A6969","seeders":1,"leechers":0,"uploader":null,"files":3,"time":1416436353,"description":"Country: Germany\n Year: 1958\n Sound: German\n Subtitles: \n            Spanish    (spa.srt)\n            Portuguese (pt-br.srt)\n\n\n IMDB code: tt1710625\n IMDB rate: 6.8/10 (361)\n\nJust released from prison, Greg Bachmann, a young journalist, is being offered the chance to work for well established and revered star reporter Cesar Boyd. For Greg it's a dream come true: Boyd has been his idol for a long time and he hopes to learn from the older, more experienced man. When Boyd fails to uncover spectacular news to distribute to international agencies, he simply makes up a tall tale about German soldiers that supposedly were buried alive for years in a Polish bunker after World War II. He has Bachmann launch the story who soon realizes that there's something wrong with it. When Bachmann threatens to go public with the truth he is being framed by Boyd as the originator of the sham. \n\n\nGeneral\nComplete name               : Nasser.Asphalt.1958 [Paz].avi\nFormat                      : AVI\nFormat/Info                 : Audio Video Interleave\nFile size                   : 1.20 GiB\nDuration                    : 1h 28mn\nOverall bit rate            : 1 939 Kbps\nWriting application         : VirtualDubMod 1.5.10.2 (build 2540/release)\nWriting library             : VirtualDubMod build 2540/release\n\nVideo\nID                          : 0\nFormat                      : MPEG-4 Visual\nFormat profile              : Simple@L1\nFormat settings, BVOP       : No\nFormat settings, QPel       : No\nFormat settings, GMC        : No warppoints\nFormat settings, Matrix     : Default (H.263)\nCodec ID                    : DX50\nCodec ID/Hint               : DivX 5\nDuration                    : 1h 28mn\nBit rate                    : 1 799 Kbps\nWidth                       : 720 pixels\nHeight                      : 540 pixels\nDisplay aspect ratio        : 4:3\nFrame rate                  : 29.970 fps\nColor space                 : YUV\nChroma subsampling          : 4:2:0\nBit depth                   : 8 bits\nScan type                   : Progressive\nCompression mode            : Lossy\nBits/(Pixel*Frame)          : 0.154\nStream size                 : 1.12 GiB (93%)\nWriting library             : DigiArty AV Encoder Core\n\nAudio\nID                          : 1\nFormat                      : MPEG Audio\nFormat version              : Version 1\nFormat profile              : Layer 3\nCodec ID                    : 55\nCodec ID/Hint               : MP3\nDuration                    : 1h 28mn\nBit rate mode               : Constant\nBit rate                    : 128 Kbps\nChannel(s)                  : 2 channels\nSampling rate               : 48.0 KHz\nCompression mode            : Lossy\nStream size                 : 81.5 MiB (7%)\nAlignment                   : Aligned on interleaves\nInterleave, duration        : 33 ms (1.00 video frame)\nInterleave, preload duratio : 504 ms\nWriting library             : LAME3.99r\nEncoding settings           : -m s -V 4 -q 3 -lowpass 17 -b 128","torrent":{"xt":"urn:btih:a79d79258feef3f33386dc9a417323faf40dbd19","amp;dn":"Nasser.Asphalt.1958+%5BPaz%5D","amp;tr":["udp%3A%2F%2Ftracker.openbittorrent.com%3A80","udp%3A%2F%2Fopen.demonii.com%3A1337","udp%3A%2F%2Ftracker.coppersurfer.tk%3A6969","udp%3A%2F%2Fexodus.desync.com%3A6969"],"infoHash":"a79d79258feef3f33386dc9a417323faf40dbd19","infoHashBuffer":{"type":"Buffer","data":[167,157,121,37,143,238,243,243,51,134,220,154,65,115,35,250,244,13,189,25]},"announce":[],"urlList":[]}}